<svg xmlns="http://www.w3.org/2000/svg" width="76.021" height="76.098" viewBox="0 0 76.021 76.098">
  <g id="Groupe_3222" data-name="Groupe 3222" transform="translate(-96 -62)">
    <path id="Tracé_557" data-name="Tracé 557" d="M76.017,35.552A38.051,38.051,0,1,0,38.052,76.126c1.2,0,2.392-.065,3.566-.174a1.8,1.8,0,0,0,1.653-1.783V66.863a1.8,1.8,0,0,0-2-1.8,26.354,26.354,0,0,1-3.218.2A27.172,27.172,0,1,1,60.47,22.723a26.832,26.832,0,0,1,4.675,13.112,2.327,2.327,0,0,0,2.3,2.131l6.2.087a2.37,2.37,0,0,0,2.37-2.5Z" transform="translate(96 61.972)" fill="#7e2beb"/>
    <path id="Tracé_558" data-name="Tracé 558" d="M91.144,73a19.205,19.205,0,1,0,4.736,37.814,19.578,19.578,0,0,0,5.146-2.126v3.766a1.566,1.566,0,0,0,1.566,1.566h6.19a1.585,1.585,0,0,0,1.566-1.566V92.205A19.224,19.224,0,0,0,91.144,73Zm2.443,28.771a9.752,9.752,0,0,1-2.443.317A9.882,9.882,0,0,1,84,85.381a9.678,9.678,0,0,1,1.9-1.566A9.9,9.9,0,0,1,101.026,92v.615A9.845,9.845,0,0,1,93.586,101.771Z" transform="translate(42.908 8.275)" fill="#22e9d5" stroke="#22e9d5" stroke-width="1"/>
  </g>
</svg>
